<svg xmlns="http://www.w3.org/2000/svg" version="1.1" xmlns:xlink="http://www.w3.org/1999/xlink" xmlns:svgjs="http://svgjs.dev/svgjs" width="2000" height="313" viewBox="0 0 2000 313"><g transform="matrix(1,0,0,1,-1.2121212121212466,-0.3960619648323416)"><svg viewBox="0 0 396 62" data-background-color="#f3eff4" preserveAspectRatio="xMidYMid meet" height="313" width="2000" xmlns="http://www.w3.org/2000/svg" xmlns:xlink="http://www.w3.org/1999/xlink"><g id="tight-bounds" transform="matrix(1,0,0,1,0.2400000000000091,0.07845316875273056)"><svg viewBox="0 0 395.52 61.84309366249455" height="61.84309366249455" width="395.52"><g><svg viewBox="0 0 514.2565501236962 80.40861649436457" height="61.84309366249455" width="395.52"><g><rect width="5.246984093454427" height="69.8193486202876" x="99.75400557617269" y="5.294633937038483" fill="#4169e1" opacity="1" stroke-width="0" stroke="transparent" fill-opacity="1" class="rect-yte-0" data-fill-palette-color="primary" rx="1%" id="yte-0" data-palette-color="#4169e1"></rect></g><g transform="matrix(1,0,0,1,118.7365501236963,11.112912988729114)"><svg viewBox="0 0 395.52 58.18279051690634" height="58.18279051690634" width="395.52"><g id="textblocktransform"><svg viewBox="0 0 395.52 58.18279051690634" height="58.18279051690634" width="395.52" id="textblock"><g><svg viewBox="0 0 395.52 58.18279051690634" height="58.18279051690634" width="395.52"><g transform="matrix(1,0,0,1,0,0)"><svg width="395.52" viewBox="1 -37.35 257.28 37.85" height="58.18279051690634" data-palette-color="#4169e1"><path d="M9.05-32.8L9.05-32.8Q11.1-32.8 13.08-32.9 15.05-33 18.05-33L18.05-33Q21-33 23.8-32 26.6-31 28.9-29 31.2-27 32.55-23.93 33.9-20.85 33.9-16.7L33.9-16.7Q33.9-12.3 32.45-9.13 31-5.95 28.65-3.93 26.3-1.9 23.55-0.93 20.8 0.05 18.2 0.05L18.2 0.05Q15.75 0.05 13.73-0.05 11.7-0.15 9.2-0.15L9.2-0.15 12.9-3.8Q15-3.15 16.95-2.95 18.9-2.75 20.5-2.75L20.5-2.75Q22.45-4 23.7-6.05 24.95-8.1 25.55-10.63 26.15-13.15 26.15-15.75L26.15-15.75Q26.15-18.5 25.53-21.1 24.9-23.7 23.68-25.8 22.45-27.9 20.68-29.13 18.9-30.35 16.65-30.35L16.65-30.35Q15.5-30.35 14.65-30.2 13.8-30.05 12.9-29.8L12.9-29.8Q12.85-26.95 12.85-23.85 12.85-20.75 12.85-17.8L12.85-17.8Q12.85-14.15 12.88-10.6 12.9-7.05 12.95-3.65L12.95-3.65 15-1.5 14.45-0.05Q13.6-0.1 12.9-0.1 12.2-0.1 11.38-0.13 10.55-0.15 9.2-0.15L9.2-0.15Q6.7-0.2 4.95-0.13 3.2-0.05 1.65 0L1.65 0 1-1.9 5.4-2.9Q5.5-7.65 5.6-11.25 5.7-14.85 5.7-17.8L5.7-17.8Q5.7-21.2 5.63-24.33 5.55-27.45 5.45-29.85L5.45-29.85 1.05-31.05 1.65-33Q3.15-32.95 4.2-32.9 5.25-32.85 6.38-32.83 7.5-32.8 9.05-32.8ZM49.25-21.7L49.25-21.7Q52.95-21.7 55.42-20.15 57.9-18.6 59.12-16.1 60.35-13.6 60.35-10.7L60.35-10.7Q60.35-7.75 59.1-5.18 57.85-2.6 55.35-1.05 52.85 0.5 49.1 0.5L49.1 0.5Q45.35 0.5 42.8-1.07 40.25-2.65 38.95-5.25 37.65-7.85 37.65-10.8L37.65-10.8Q37.65-13.7 38.92-16.18 40.2-18.65 42.77-20.18 45.35-21.7 49.25-21.7ZM44.65-11.85L44.65-11.85Q44.65-9.35 45.22-7.1 45.8-4.85 46.95-3.45 48.1-2.05 49.7-2.05L49.7-2.05Q51.6-2.05 52.52-4.13 53.45-6.2 53.45-9.3L53.45-9.3Q53.45-11.8 52.87-14.03 52.3-16.25 51.17-17.68 50.05-19.1 48.4-19.1L48.4-19.1Q46.5-19.1 45.57-17.03 44.65-14.95 44.65-11.85ZM74.45-21.7L74.45-21.7Q78.15-21.7 80.62-20.15 83.09-18.6 84.32-16.1 85.55-13.6 85.55-10.7L85.55-10.7Q85.55-7.75 84.3-5.18 83.05-2.6 80.55-1.05 78.05 0.5 74.3 0.5L74.3 0.5Q70.55 0.5 68-1.07 65.45-2.65 64.15-5.25 62.85-7.85 62.85-10.8L62.85-10.8Q62.85-13.7 64.12-16.18 65.4-18.65 67.97-20.18 70.55-21.7 74.45-21.7ZM69.84-11.85L69.84-11.85Q69.84-9.35 70.42-7.1 71-4.85 72.15-3.45 73.3-2.05 74.9-2.05L74.9-2.05Q76.8-2.05 77.72-4.13 78.65-6.2 78.65-9.3L78.65-9.3Q78.65-11.8 78.07-14.03 77.5-16.25 76.37-17.68 75.25-19.1 73.59-19.1L73.59-19.1Q71.7-19.1 70.77-17.03 69.84-14.95 69.84-11.85ZM110.09-37.35L110.09-37.35Q110.09-34.15 110.07-30.35 110.04-26.55 110.04-21.7L110.04-21.7Q110.04-17.65 110.04-13.88 110.04-10.1 110.07-7.23 110.09-4.35 110.14-2.9L110.14-2.9 113.89-1.85 113.14 0Q111.84-0.1 110.59-0.1 109.34-0.1 107.54-0.1L107.54-0.1Q106.19-0.1 105.29-0.08 104.39-0.05 103.69 0L103.69 0Q103.64-1 103.52-1.88 103.39-2.75 103.29-3.7L103.29-3.7Q103.34-5.95 103.37-8.2 103.39-10.45 103.39-12.55L103.39-12.55Q103.39-14 103.39-15.4 103.39-16.8 103.34-18.3L103.34-18.3Q103.34-20.6 103.27-23.3 103.19-26 103.07-28.7 102.94-31.4 102.74-33.6L102.74-33.6 98.69-34.25 98.24-36.4Q99.09-36.4 100.59-36.5 102.09-36.6 103.87-36.73 105.64-36.85 107.29-37.02 108.94-37.2 110.09-37.35ZM97.04-21.8L97.04-21.8Q99.79-21.8 101.89-20.35 103.99-18.9 104.94-16.25L104.94-16.25 103.39-12Q103.39-13.75 102.67-15.18 101.94-16.6 100.89-17.53 99.84-18.45 98.89-18.65L98.89-18.65Q96.89-18.05 95.77-15.9 94.64-13.75 94.64-10.95L94.64-10.95Q94.64-7.15 96.09-5.3 97.54-3.45 99.39-3.45L99.39-3.45Q101.14-3.45 102.72-5.35 104.29-7.25 104.89-10.35L104.89-10.35 106.44-8.1Q105.09-4.45 102.77-2.05 100.44 0.35 97.04 0.35L97.04 0.35Q94.79 0.35 92.67-0.93 90.54-2.2 89.19-4.73 87.84-7.25 87.84-11.05L87.84-11.05Q87.84-14.6 89.24-17 90.64-19.4 92.77-20.6 94.89-21.8 97.04-21.8ZM125.49-37.25L125.49-37.25Q125.44-28.75 125.47-19.93 125.49-11.1 125.64-2.9L125.64-2.9 129.59-1.85 128.64 0Q127.74-0.05 126.97-0.08 126.19-0.1 125.12-0.13 124.04-0.15 122.19-0.15L122.19-0.15Q120.54-0.15 119.47-0.13 118.39-0.1 117.54-0.08 116.69-0.05 115.64 0L115.64 0 114.69-1.85 118.64-2.9Q118.74-8.25 118.77-13.88 118.79-19.5 118.72-24.63 118.64-29.75 118.44-33.6L118.44-33.6 114.14-34.3 113.64-36.25Q114.79-36.35 116.74-36.45 118.69-36.55 121.02-36.75 123.34-36.95 125.49-37.25ZM141.49-21.85L141.49-21.85Q143.99-21.85 146.11-20.75 148.24-19.65 149.51-17.43 150.79-15.2 150.79-11.85L150.79-11.85Q149.69-11.65 147.89-11.5 146.09-11.35 143.94-11.28 141.79-11.2 139.64-11.2L139.64-11.2Q138.04-11.2 136.89-11.25 135.74-11.3 135.34-11.35L135.34-11.35 135.34-13.75Q135.89-13.75 137.01-13.75 138.14-13.75 139.54-13.8 140.94-13.85 142.26-13.95 143.59-14.05 144.49-14.2L144.49-14.2Q144.44-15.25 143.91-16.32 143.39-17.4 142.34-18.15 141.29-18.9 139.64-18.9L139.64-18.9Q138.64-17.95 138.04-16.28 137.44-14.6 137.44-12.4L137.44-12.4Q137.44-7.9 139.31-5.78 141.19-3.65 143.94-3.65L143.94-3.65Q146.74-3.65 149.84-5.65L149.84-5.65 150.94-3.35Q148.79-1.4 146.34-0.55 143.89 0.3 141.49 0.3L141.49 0.3Q138.69 0.3 136.26-0.93 133.84-2.15 132.36-4.6 130.89-7.05 130.89-10.7L130.89-10.7Q130.89-14.4 132.41-16.88 133.94-19.35 136.36-20.6 138.79-21.85 141.49-21.85ZM160.89-32.8L160.89-32.8Q162.94-32.8 164.91-32.9 166.89-33 169.89-33L169.89-33Q172.84-33 175.64-32 178.44-31 180.74-29 183.04-27 184.39-23.93 185.74-20.85 185.74-16.7L185.74-16.7Q185.74-12.3 184.29-9.13 182.84-5.95 180.49-3.93 178.14-1.9 175.39-0.93 172.64 0.05 170.03 0.05L170.03 0.05Q167.59 0.05 165.56-0.05 163.53-0.15 161.03-0.15L161.03-0.15 164.74-3.8Q166.84-3.15 168.78-2.95 170.74-2.75 172.34-2.75L172.34-2.75Q174.29-4 175.54-6.05 176.79-8.1 177.39-10.63 177.99-13.15 177.99-15.75L177.99-15.75Q177.99-18.5 177.36-21.1 176.74-23.7 175.51-25.8 174.29-27.9 172.51-29.13 170.74-30.35 168.49-30.35L168.49-30.35Q167.34-30.35 166.49-30.2 165.64-30.05 164.74-29.8L164.74-29.8Q164.69-26.95 164.69-23.85 164.69-20.75 164.69-17.8L164.69-17.8Q164.69-14.15 164.71-10.6 164.74-7.05 164.78-3.65L164.78-3.65 166.84-1.5 166.28-0.05Q165.44-0.1 164.74-0.1 164.03-0.1 163.21-0.13 162.39-0.15 161.03-0.15L161.03-0.15Q158.53-0.2 156.78-0.13 155.03-0.05 153.49 0L153.49 0 152.84-1.9 157.24-2.9Q157.34-7.65 157.44-11.25 157.53-14.85 157.53-17.8L157.53-17.8Q157.53-21.2 157.46-24.33 157.39-27.45 157.28-29.85L157.28-29.85 152.89-31.05 153.49-33Q154.99-32.95 156.03-32.9 157.09-32.85 158.21-32.83 159.34-32.8 160.89-32.8ZM199.88-21.85L199.88-21.85Q202.38-21.85 204.51-20.75 206.63-19.65 207.91-17.43 209.18-15.2 209.18-11.85L209.18-11.85Q208.08-11.65 206.28-11.5 204.48-11.35 202.33-11.28 200.18-11.2 198.03-11.2L198.03-11.2Q196.43-11.2 195.28-11.25 194.13-11.3 193.73-11.35L193.73-11.35 193.73-13.75Q194.28-13.75 195.41-13.75 196.53-13.75 197.93-13.8 199.33-13.85 200.66-13.95 201.98-14.05 202.88-14.2L202.88-14.2Q202.83-15.25 202.31-16.32 201.78-17.4 200.73-18.15 199.68-18.9 198.03-18.9L198.03-18.9Q197.03-17.95 196.43-16.28 195.83-14.6 195.83-12.4L195.83-12.4Q195.83-7.9 197.71-5.78 199.58-3.65 202.33-3.65L202.33-3.65Q205.13-3.65 208.23-5.65L208.23-5.65 209.33-3.35Q207.18-1.4 204.73-0.55 202.28 0.3 199.88 0.3L199.88 0.3Q197.08 0.3 194.66-0.93 192.23-2.15 190.76-4.6 189.28-7.05 189.28-10.7L189.28-10.7Q189.28-14.4 190.81-16.88 192.33-19.35 194.76-20.6 197.18-21.85 199.88-21.85ZM211.53-1.3L211.53-1.3Q211.93-3.2 212.21-4.48 212.48-5.75 212.68-7.25L212.68-7.25 215.18-7.25 215.98-3.35Q216.63-2.8 217.53-2.5 218.43-2.2 219.33-2.2L219.33-2.2Q220.58-2.2 221.56-2.8 222.53-3.4 222.53-4.65L222.53-4.65Q222.53-5.7 221.76-6.38 220.98-7.05 219.78-7.58 218.58-8.1 217.23-8.63 215.88-9.15 214.68-9.95 213.48-10.75 212.71-11.95 211.93-13.15 211.93-15L211.93-15Q211.93-17.55 213.18-19.03 214.43-20.5 216.46-21.15 218.48-21.8 220.73-21.8L220.73-21.8Q222.48-21.8 224.38-21.4 226.28-21 227.83-20.25L227.83-20.25Q227.43-18.5 227.11-17.15 226.78-15.8 226.53-14.5L226.53-14.5 223.93-14.55 223.28-17.95Q222.38-19.15 220.33-19.15L220.33-19.15Q219.23-19.15 218.31-18.65 217.38-18.15 217.38-17L217.38-17Q217.38-15.9 218.18-15.23 218.98-14.55 220.26-14.05 221.53-13.55 222.98-12.98 224.43-12.4 225.71-11.55 226.98-10.7 227.78-9.38 228.58-8.05 228.58-6L228.58-6Q228.58-3.6 227.28-2.18 225.98-0.75 223.83-0.13 221.68 0.5 219.18 0.5L219.18 0.5Q217.28 0.5 215.33 0.1 213.38-0.3 211.53-1.3ZM241.18-37.25L241.18-37.25Q241.18-36 241.18-33.25 241.18-30.5 241.15-27 241.13-23.5 241.1-19.88 241.08-16.25 241.08-13.2L241.08-13.2 241.33-2.9 244.73-1.85 243.98 0Q242.13-0.1 240.65-0.13 239.18-0.15 237.43-0.15L237.43-0.15Q235.43-0.15 233.8-0.13 232.18-0.1 230.53 0L230.53 0 229.68-1.85 233.98-2.9Q234.28-8.55 234.28-14.65L234.28-14.65Q234.28-20.25 234.18-25.08 234.08-29.9 233.78-33.65L233.78-33.65 229.78-34.3 229.33-36.35Q230.18-36.4 231.68-36.5 233.18-36.6 234.93-36.73 236.68-36.85 238.33-36.98 239.98-37.1 241.18-37.25ZM241.58-10.95L241.58-10.95Q242.88-12.25 243.93-13.23 244.98-14.2 245.98-15.35 246.98-16.5 248.13-18.15L248.13-18.15 243.98-19.2 244.58-21.05Q246.13-21 247.6-20.95 249.08-20.9 250.88-20.9L250.88-20.9Q254.13-20.9 256.73-21.05L256.73-21.05 257.43-19.2 253.28-18.2Q251.38-16.55 250.15-15.45 248.93-14.35 247.9-13.33 246.88-12.3 245.48-10.95L245.48-10.95 247.23-13.6Q248.78-11.05 249.8-9.35 250.83-7.65 251.88-6.2 252.93-4.75 254.43-2.9L254.43-2.9 258.28-1.85 257.78 0Q256.38-0.1 255.15-0.1 253.93-0.1 252.48-0.1L252.48-0.1Q251.08-0.1 249.85-0.1 248.63-0.1 247.43 0L247.43 0Q245.98-2.6 244.65-5.25 243.33-7.9 241.58-10.95Z" opacity="1" transform="matrix(1,0,0,1,0,0)" fill="#4169e1" class="wordmark-text-0" data-fill-palette-color="primary" id="text-0"></path></svg></g></svg></g></svg></g></svg></g><g><svg viewBox="0 0 86.0184451221035 80.40861649436457" height="80.40861649436457" width="86.0184451221035"><g><svg xmlns="http://www.w3.org/2000/svg" xmlns:xlink="http://www.w3.org/1999/xlink" version="1.1" x="0" y="0" viewBox="11.622 15.252 80.179 74.95" enable-background="new 0 0 100 100" xml:space="preserve" height="80.40861649436457" width="86.0184451221035" class="icon-icon-0" data-fill-palette-color="accent" id="icon-0"><g fill="#4169e1" data-fill-palette-color="accent"><path d="M68.118 83.062C67.991 81.618 67.896 80.571 67.869 80.202 67.801 79.309 67.15 78.846 66.539 78.846H66.526C65.808 78.86 65.224 79.444 65.191 80.215 65.164 80.698 65.009 82.438 64.815 84.633 64.674 86.311 64.499 88.245 64.331 90.198H65.935C66.096 88.244 66.265 86.344 66.406 84.767 66.453 84.244 66.5 83.746 66.533 83.29 66.694 85.096 66.916 87.614 67.13 90.198H68.728C68.514 87.587 68.285 85.016 68.118 83.062" fill="#4169e1" data-fill-palette-color="accent"></path><g fill="#4169e1" data-fill-palette-color="accent"><path d="M91.801 15.252V63.325H76.07A10 10 0 0 0 75.897 62.848C74.748 59.834 72.378 58.632 70.754 57.847A1.2 1.2 0 0 1 70.734 57.552 2 2 0 0 1 70.781 57.27C70.794 57.196 70.815 57.116 70.841 57.035 70.882 56.921 70.916 56.786 70.936 56.639 71.044 56.256 71.191 55.866 71.345 55.464L71.419 55.276C71.822 54.283 72.332 53.013 72.358 51.463 72.426 48.025 70.317 45.266 67.229 44.749A6.5 6.5 0 0 0 66.242 44.655H66.116C65.807 44.655 65.511 44.676 65.236 44.722 62.162 45.118 59.959 47.803 59.898 51.247 59.872 52.778 60.308 54.013 60.697 55.094 60.811 55.43 60.925 55.739 61.019 56.041 61.04 56.188 61.073 56.33 61.12 56.458 61.161 56.585 61.194 56.713 61.228 56.848 60.247 56.726 59.013 56.398 57.528 55.867 53.91 54.585 53.03 51.699 52.661 49.329A5 5 0 0 0 52.292 48.04 2 2 0 0 0 52.124 47.704 3.7 3.7 0 0 0 51.378 46.731L51.358 46.704 51.332 46.683 51.225 46.589 49.492 39.5A2.72 2.72 0 0 0 47.901 37.627 1.8 1.8 0 0 0 47.572 37.103C44.928 34.149 41.295 31.168 37.139 31.175 34.205 31.183 32.95 34.196 31.392 36.453 30.68 33.74 29.505 30.135 26.981 31.672 24.987 32.894 23.537 34.968 21.865 36.559 21.139 36.72 20.818 37.083 20.912 37.654 20.55 37.17 20.535 36.069 20.488 35.538 20.355 34.061 20.401 32.558 20.394 31.074 20.394 28.905 17.037 28.905 17.037 31.074 17.044 33.343 16.446 42.185 21.2 40.768 23.825 39.989 25.617 37.572 27.456 35.645 27.476 35.719 27.491 35.786 27.51 35.86 27.912 37.478 28.504 39.009 29.155 40.533 29.491 41.325 30.773 41.62 31.451 41.137 33.552 39.64 34.573 37.237 36.225 35.317 38.319 32.879 42.474 36.605 44.502 38.727A2.7 2.7 0 0 0 44.186 40.794L45.9 47.77 45.8 47.971 45.786 47.998 45.76 48.051C45.425 48.87 45.343 49.843 45.526 50.857 45.667 51.663 45.915 52.509 46.264 53.382 46.465 53.905 46.694 54.416 46.929 54.892 47.204 55.456 47.519 56.047 47.882 56.638 49.037 58.571 50.494 60.39 51.977 61.773 52.5 62.263 53.119 62.781 53.763 63.324H11.622V15.252z" fill="#4169e1" data-fill-palette-color="accent"></path><path d="M79.172 80.008C78.984 79.297 78.722 78.128 78.414 76.779 77.534 72.899 76.197 67.031 74.781 63.332V63.325C73.781 60.741 71.707 59.734 70.181 58.995L70.007 58.908C69.806 58.814 69.477 58.263 69.53 57.444 69.543 57.29 69.563 57.136 69.598 56.988A4 4 0 0 1 69.698 56.606 1 1 0 0 0 69.746 56.384C69.893 55.84 70.094 55.33 70.295 54.8 70.704 53.786 71.121 52.725 71.148 51.437 71.196 49.006 69.818 46.516 67.133 46.073A5 5 0 0 0 65.569 46.046C62.863 46.401 61.413 48.832 61.373 51.269 61.352 52.565 61.736 53.639 62.098 54.666 62.233 55.042 62.36 55.405 62.474 55.773 62.474 55.854 62.487 55.934 62.514 56.008 62.601 56.257 62.655 56.471 62.689 56.666 62.717 56.807 62.736 56.955 62.757 57.102 62.789 57.68 62.642 57.975 62.575 58.069 62.514 58.15 62.428 58.243 62.313 58.243 61.044 58.277 59.339 57.894 57.211 57.136 52.873 55.592 51.859 52.053 51.47 49.529A3.5 3.5 0 0 0 51.188 48.569 1 1 0 0 0 51.088 48.368 2 2 0 0 0 50.92 48.086 2.6 2.6 0 0 0 50.583 47.697C50.543 47.663 50.516 47.635 50.482 47.609L48.644 40.05A1.74 1.74 0 0 0 48.046 39.104 1.72 1.72 0 0 0 46.972 38.728C46.864 38.728 46.716 38.735 46.555 38.775A1.72 1.72 0 0 0 45.494 39.561 2 2 0 0 0 45.366 39.83 1.65 1.65 0 0 0 45.293 40.863L47.159 48.517A0.2 0.2 0 0 0 47.132 48.57C46.898 49.148 46.837 49.852 46.972 50.617 47.106 51.329 47.327 52.095 47.642 52.887 47.817 53.351 48.024 53.827 48.26 54.304 48.529 54.848 48.831 55.406 49.16 55.949 50.228 57.728 51.577 59.447 53.021 60.796 53.524 61.266 54.136 61.776 54.773 62.314 55.155 62.629 55.558 62.971 55.968 63.327 57.673 64.797 59.426 66.516 59.426 67.839 59.426 70.914 59.795 75.029 59.842 75.499V75.614C59.789 77.534 59.795 84.194 59.809 90.202H61.407C61.393 84.2 61.386 77.554 61.433 75.64V75.459C61.433 75.433 61.433 75.412 61.426 75.385 61.426 75.344 61.016 70.961 61.016 67.839 61.016 66.288 59.848 64.764 58.351 63.327 57.551 62.555 56.653 61.803 55.799 61.085A38 38 0 0 1 54.115 59.628C52.564 58.184 51.107 56.231 50.06 54.304A18 18 0 0 1 49.16 52.397 11.4 11.4 0 0 1 48.542 50.336C48.456 49.859 48.488 49.443 48.622 49.141 48.656 49.081 48.69 49.027 48.724 48.974A1 1 0 0 1 48.851 48.832C48.872 48.819 48.892 48.805 48.912 48.799A0.25 0.25 0 0 1 49.014 48.745 0.38 0.38 0 0 1 49.308 48.745 0.3 0.3 0 0 1 49.409 48.799 0.7 0.7 0 0 1 49.598 48.974C49.638 49.028 49.664 49.081 49.698 49.141 49.793 49.315 49.86 49.523 49.893 49.772 49.994 50.424 50.175 51.584 50.685 52.887 51.491 54.961 53.15 57.385 56.674 58.64 58.983 59.466 60.89 59.855 62.34 59.842 62.951 59.829 63.508 59.52 63.884 58.983 64.092 58.681 64.347 58.151 64.354 57.338H64.368C64.368 57.298 64.354 57.251 64.354 57.211 64.348 56.822 64.273 56.372 64.125 55.855A18 18 0 0 0 63.582 54.109C63.246 53.183 62.924 52.303 62.937 51.302 62.963 49.496 64.038 47.556 66.32 47.603 68.603 47.636 69.603 49.61 69.576 51.41 69.562 52.41 69.207 53.277 68.838 54.203A17 17 0 0 0 68.201 56.062C68.201 56.069 68.194 56.069 68.194 56.076 67.51 58.042 68.235 59.828 69.308 60.346L69.49 60.433C70.833 61.084 72.209 61.748 73.028 63.326 73.129 63.507 73.21 63.695 73.29 63.897 74.666 67.495 75.981 73.296 76.854 77.136 77.183 78.553 77.438 79.68 77.627 80.412 77.748 80.882 77.721 81.245 77.539 81.419 77.372 81.573 77.063 81.613 76.754 81.52A1.15 1.15 0 0 1 75.981 80.634C75.545 78.471 73.21 67.777 73.189 67.663A0.804 0.804 0 0 0 72.323 67.045 0.787 0.787 0 0 0 71.612 67.837V75.611C71.658 77.544 71.652 84.197 71.638 90.199H73.229C73.249 84.183 73.249 77.523 73.202 75.59V75.261C73.732 77.711 74.235 80.061 74.417 80.947A2.71 2.71 0 0 0 76.276 83.035C77.142 83.31 78.049 83.129 78.64 82.565 79.005 82.23 79.549 81.438 79.172 80.008M49.169 47.119H49.15A2 2 0 0 0 48.806 47.153H48.8C48.686 47.173 48.566 47.213 48.452 47.254 48.397 47.274 48.35 47.295 48.303 47.314 48.297 47.314 48.297 47.322 48.297 47.322A1.3 1.3 0 0 0 48.015 47.483L46.364 40.723A0.68 0.68 0 0 1 46.445 40.186 0.7 0.7 0 0 1 46.894 39.857 0.713 0.713 0 0 1 47.754 40.387L49.391 47.134A2 2 0 0 0 49.169 47.119" fill="#4169e1" data-fill-palette-color="accent"></path></g><path fill="#4169e1" d="M48.41 48.917" data-fill-palette-color="accent"></path></g><path d="M66.042 59.451C64.92 59.451 63.526 59.235 63.468 59.226L63.666 57.961C63.679 57.963 65.021 58.17 66.042 58.17 67.071 58.17 68.627 57.961 68.643 57.959L68.815 59.228C68.748 59.237 67.158 59.451 66.042 59.451" fill="#4169e1" data-fill-palette-color="accent"></path><path d="M66.383 77.932C63.879 77.932 60.645 77.715 60.612 77.713L60.698 76.436C60.73 76.438 63.922 76.652 66.383 76.652 68.846 76.652 72.526 76.438 72.563 76.436L72.638 77.713C72.601 77.716 68.885 77.932 66.383 77.932" fill="#4169e1" data-fill-palette-color="accent"></path></svg></g></svg></g></svg></g><defs></defs></svg><rect width="395.52" height="61.84309366249455" fill="none" stroke="none" visibility="hidden"></rect></g></svg></g></svg>